<?xml version="1.0" standalone="no"?>
<!DOCTYPE svg PUBLIC "-//W3C//DTD SVG 20010904//EN"
 "http://www.w3.org/TR/2001/REC-SVG-20010904/DTD/svg10.dtd">
<svg version="1.0" xmlns="http://www.w3.org/2000/svg"
 width="640.000000pt" height="640.000000pt" viewBox="0 0 640.000000 640.000000"
 preserveAspectRatio="xMidYMid meet">

<g transform="translate(0.000000,640.000000) scale(0.100000,-0.100000)"
fill="#000000" stroke="none">
<path d="M2460 5105 c-132 -21 -304 -68 -564 -156 l-239 -80 -96 3 -96 3 -3
62 c-2 35 -8 66 -16 72 -9 8 -97 10 -282 9 l-268 -3 -13 -25 c-10 -20 -12
-157 -10 -638 2 -594 3 -614 21 -628 27 -19 523 -21 549 -1 11 8 17 30 19 72
l3 60 175 7 c96 3 208 13 248 22 82 17 208 69 393 162 l129 64 298 0 c294 0
300 0 343 23 54 29 98 89 113 154 l11 49 390 -169 c431 -188 465 -198 541
-159 82 42 124 113 124 209 0 62 -25 125 -64 162 -12 12 -109 69 -214 126
-106 58 -330 187 -499 288 -334 200 -375 222 -486 266 -150 60 -320 75 -507
46z m423 -138 c115 -40 212 -91 523 -277 154 -93 370 -217 479 -276 222 -122
239 -138 232 -214 -4 -34 -12 -51 -36 -72 -17 -15 -42 -28 -54 -28 -13 0 -237
93 -498 207 l-474 208 -372 5 c-355 5 -373 6 -399 26 -15 11 -30 27 -34 35
-32 69 -36 74 -67 77 -25 2 -35 -2 -48 -22 -34 -51 22 -152 109 -199 40 -21
53 -22 401 -25 351 -3 360 -3 382 -24 25 -23 31 -84 13 -119 -25 -46 -50 -49
-367 -49 l-298 0 -205 -100 c-113 -55 -232 -106 -265 -115 -77 -20 -268 -37
-365 -33 l-75 3 0 390 0 390 120 5 c118 5 123 6 380 91 224 75 406 125 520
142 17 3 95 4 175 3 127 -3 155 -6 223 -29z m-1533 -602 l0 -545 -180 0 -180
0 0 545 0 545 180 0 180 0 0 -545z"/>
<path d="M3086 4029 c-330 -45 -609 -295 -697 -625 -30 -111 -30 -297 0 -408
63 -237 222 -434 436 -541 133 -66 224 -87 375 -87 151 0 242 21 375 87 214
107 373 304 436 541 30 111 30 297 0 408 -95 358 -401 608 -767 629 -49 3
-120 1 -158 -4z m327 -180 c310 -102 510 -415 467 -730 -37 -273 -211 -482
-472 -570 -81 -28 -107 -32 -203 -32 -151 -1 -248 27 -375 108 -218 139 -344
405 -310 656 38 280 224 497 495 580 118 36 267 31 398 -12z"/>
<path d="M3217 3704 c-3 -4 -9 -33 -13 -66 -4 -33 -12 -61 -18 -63 -6 -1 -30
-8 -54 -14 -47 -13 -106 -60 -128 -102 -8 -15 -14 -55 -14 -89 0 -112 44 -162
197 -220 82 -31 133 -72 133 -106 0 -30 -30 -71 -59 -84 -46 -19 -157 -9 -209
18 -23 12 -49 22 -57 22 -19 0 -29 -41 -21 -85 8 -38 37 -59 103 -73 l38 -8 0
-70 0 -69 44 -3 c50 -4 61 6 61 58 0 58 10 80 39 86 97 20 159 61 192 127 28
54 24 162 -7 204 -29 39 -87 76 -172 108 -95 36 -132 66 -132 110 0 24 7 39
26 54 36 28 132 28 193 1 66 -30 71 -28 71 35 l0 56 -42 19 c-24 11 -51 20
-61 20 -16 0 -18 8 -16 58 1 32 -1 64 -5 70 -7 12 -78 17 -89 6z"/>
<path d="M4957 2678 c-11 -9 -17 -31 -19 -73 l-3 -60 -175 -7 c-96 -3 -208
-13 -248 -22 -82 -17 -208 -69 -393 -162 l-129 -64 -298 0 c-294 0 -300 0
-343 -23 -54 -29 -98 -89 -113 -154 l-11 -49 -390 169 c-431 188 -465 198
-541 159 -82 -42 -124 -113 -124 -207 0 -112 40 -162 198 -246 160 -85 280
-154 612 -352 367 -220 478 -272 631 -296 209 -34 438 7 892 160 l239 80 96
-3 97 -3 3 -62 c2 -35 8 -66 16 -72 9 -8 97 -10 282 -9 l268 3 13 25 c10 20
12 157 10 638 -2 594 -3 614 -21 628 -27 19 -523 21 -549 2z m453 -643 l0
-545 -180 0 -180 0 0 545 0 545 180 0 180 0 0 -545z m-475 0 l0 -390 -125 -6
c-123 -5 -129 -7 -335 -78 -355 -122 -529 -161 -720 -161 -210 0 -321 45 -765
312 -152 91 -365 215 -474 274 -215 117 -236 136 -236 207 0 31 7 46 34 73 20
20 44 34 58 34 14 0 238 -93 499 -207 l474 -208 372 -5 c355 -5 373 -6 399
-26 15 -11 30 -27 34 -35 32 -69 36 -74 67 -77 25 -2 35 2 48 22 34 51 -22
152 -109 199 -40 21 -53 22 -402 25 l-361 3 -23 24 c-24 26 -29 79 -11 114 26
48 49 51 369 51 l298 0 185 91 c101 50 217 102 257 115 83 28 209 42 362 40
l105 -1 0 -390z"/>
</g>
</svg>
