<?xml version="1.0" standalone="no"?>
<!DOCTYPE svg PUBLIC "-//W3C//DTD SVG 20010904//EN"
 "http://www.w3.org/TR/2001/REC-SVG-20010904/DTD/svg10.dtd">
<svg version="1.0" xmlns="http://www.w3.org/2000/svg"
 width="1000.000000pt" height="1000.000000pt" viewBox="0 0 1000.000000 1000.000000"
 preserveAspectRatio="xMidYMid meet">

<g transform="translate(0.000000,1000.000000) scale(0.100000,-0.100000)"
fill="#000000" stroke="none">
<path d="M0 5000 l0 -5000 5000 0 5000 0 0 5000 0 5000 -5000 0 -5000 0 0
-5000z m3665 2390 c218 -56 382 -186 477 -380 64 -130 70 -165 75 -457 3 -145
7 -263 9 -263 3 0 46 21 97 46 121 61 249 107 378 135 141 31 424 34 574 5
547 -103 987 -495 1158 -1031 54 -170 71 -297 64 -500 -3 -93 -11 -190 -16
-215 -6 -25 -13 -55 -16 -67 l-5 -23 -1076 0 c-959 0 -1076 -2 -1070 -15 12
-33 86 -133 131 -178 103 -102 226 -171 374 -208 71 -18 104 -21 215 -16 141
5 196 18 313 75 61 29 165 99 171 114 2 5 13 13 24 19 19 10 45 -13 264 -232
134 -134 244 -251 244 -260 0 -9 -26 -39 -58 -67 -200 -174 -421 -284 -692
-345 -130 -29 -450 -31 -580 -4 -247 53 -491 168 -677 319 -36 30 -171 165
-202 202 -114 140 -209 311 -266 480 -44 130 -63 226 -76 384 -12 150 -8 2470
4 2490 12 18 73 15 162 -8z"/>
<path d="M4813 5760 c-167 -44 -344 -158 -431 -279 -46 -63 -72 -104 -72 -112
0 -5 311 -9 690 -9 393 0 690 4 690 9 0 17 -88 137 -135 184 -101 101 -225
170 -369 207 -105 27 -272 27 -373 0z"/>
</g>
</svg>
