<?xml version="1.0" standalone="no"?>
<!DOCTYPE svg PUBLIC "-//W3C//DTD SVG 20010904//EN"
 "http://www.w3.org/TR/2001/REC-SVG-20010904/DTD/svg10.dtd">
<svg version="1.0" xmlns="http://www.w3.org/2000/svg"
 width="200.000000pt" height="200.000000pt" viewBox="0 0 200.000000 200.000000"
 preserveAspectRatio="xMidYMid meet">

<g transform="translate(0.000000,200.000000) scale(0.100000,-0.100000)"
fill="#000000" stroke="none">
<path d="M1391 1730 c-61 -58 -73 -74 -69 -95 10 -50 -108 -107 -292 -141 -69
-13 -139 -28 -156 -34 -52 -20 -101 -60 -150 -123 -26 -34 -77 -95 -113 -135
-96 -107 -111 -131 -111 -175 0 -47 32 -83 83 -92 45 -9 93 7 145 47 36 28 48
31 96 29 64 -3 91 9 193 85 65 48 80 55 145 64 152 21 208 50 318 164 37 38
50 46 81 46 32 0 49 10 108 61 55 48 71 68 71 88 0 33 -86 167 -135 210 -38
33 -106 71 -127 71 -7 0 -46 -32 -87 -70z m186 -62 c22 -24 55 -65 72 -93 l31
-49 -47 -48 c-62 -63 -82 -62 -111 2 -14 30 -45 69 -82 102 l-59 53 51 52 c49
50 52 51 77 38 14 -7 45 -33 68 -57z m-169 -132 c16 -14 39 -45 52 -69 l24
-44 -23 -29 c-39 -51 -150 -141 -189 -152 -20 -6 -75 -16 -122 -23 -66 -9 -93
-18 -120 -39 -108 -84 -153 -110 -195 -110 -23 0 -44 3 -48 6 -13 13 98 130
158 166 72 44 137 110 129 133 -10 24 -34 18 -75 -20 -21 -19 -64 -49 -94 -66
-71 -40 -185 -170 -185 -210 0 -55 -99 -105 -145 -75 -25 16 -25 17 -9 48 9
17 46 63 83 102 36 40 87 99 113 132 80 106 101 116 323 159 122 23 147 32
211 74 32 22 64 40 71 40 6 1 25 -10 41 -23z"/>
<path d="M1294 1050 c-23 -11 -51 -31 -63 -44 -18 -20 -30 -23 -61 -19 -66 9
-106 -5 -199 -72 -82 -59 -96 -66 -163 -75 -129 -18 -172 -36 -246 -99 -37
-32 -78 -70 -91 -85 -19 -20 -34 -26 -64 -26 -35 0 -47 -8 -108 -67 -38 -36
-69 -74 -69 -82 0 -28 73 -141 123 -192 48 -49 112 -89 141 -89 9 0 47 30 86
66 55 52 70 73 70 95 0 59 104 110 293 145 171 31 223 56 297 148 30 37 90
106 132 152 86 95 118 159 100 199 -26 58 -111 79 -178 45z m110 -53 c27 -20
14 -48 -58 -125 -34 -37 -77 -87 -96 -112 -18 -25 -56 -69 -84 -97 -57 -60
-90 -74 -234 -98 -129 -22 -200 -46 -266 -90 -53 -35 -59 -37 -83 -24 -26 14
-76 79 -87 115 -5 18 9 36 79 102 79 75 89 81 152 95 38 9 94 19 125 22 49 6
68 15 125 60 38 29 82 60 100 69 34 17 98 22 107 8 10 -16 -93 -129 -142 -155
-73 -40 -144 -105 -140 -131 5 -34 34 -30 73 9 20 19 61 49 90 66 34 19 82 62
125 110 58 66 69 84 64 104 -5 21 1 29 42 55 52 33 80 37 108 17z m-950 -482
c27 -51 79 -109 122 -133 17 -10 15 -15 -35 -66 l-54 -55 -30 17 c-41 24 -108
101 -138 157 l-24 47 48 44 c27 24 56 44 65 44 10 0 29 -22 46 -55z"/>
</g>
</svg>
