<?xml version="1.0" standalone="no"?>
<!DOCTYPE svg PUBLIC "-//W3C//DTD SVG 20010904//EN"
 "http://www.w3.org/TR/2001/REC-SVG-20010904/DTD/svg10.dtd">
<svg version="1.0" xmlns="http://www.w3.org/2000/svg"
 width="512.000000pt" height="512.000000pt" viewBox="0 0 512.000000 512.000000"
 preserveAspectRatio="xMidYMid meet">

<g transform="translate(0.000000,512.000000) scale(0.100000,-0.100000)"
fill="#000000" stroke="none">
<path d="M2584 4874 c-165 -27 -334 -94 -482 -191 -106 -69 -280 -240 -345
-339 -337 -513 -275 -1157 153 -1584 591 -592 1582 -446 1980 292 258 479 177
1061 -203 1454 -191 199 -432 326 -700 369 -112 18 -293 18 -403 -1z m314
-175 c126 -13 196 -32 311 -80 166 -71 322 -192 433 -339 66 -86 152 -265 178
-368 152 -606 -226 -1201 -838 -1318 -98 -19 -289 -18 -392 2 -692 131 -1067
895 -749 1527 75 149 219 313 352 400 138 91 323 160 474 176 113 12 124 12
231 0z"/>
<path d="M2656 4279 l-26 -31 0 -359 c0 -375 1 -387 44 -421 19 -16 51 -18
308 -18 l286 0 31 26 c41 35 43 89 5 128 l-27 26 -233 0 -234 0 0 314 0 313
-26 27 c-39 38 -93 36 -128 -5z"/>
<path d="M4623 2626 c-93 -23 -155 -63 -506 -326 l-348 -260 -62 55 c-121 109
-298 173 -444 161 -40 -3 -229 -34 -420 -68 -442 -79 -512 -81 -734 -25 -184
47 -290 58 -444 46 -235 -17 -441 -91 -631 -226 -34 -23 -64 -43 -67 -43 -3 0
-10 30 -16 68 -23 131 -43 162 -108 162 -18 0 -200 -29 -405 -65 -389 -68
-413 -75 -432 -126 -12 -36 278 -1694 303 -1729 35 -48 43 -47 457 25 214 37
397 72 407 77 37 19 50 55 44 121 l-7 62 92 75 c135 109 184 133 283 138 44 2
357 -17 695 -41 637 -46 697 -48 850 -16 142 29 345 115 453 192 70 50 1515
1467 1528 1499 22 54 -11 106 -114 177 -100 67 -260 96 -374 67z m225 -197
l44 -19 -294 -288 c-845 -829 -1091 -1068 -1130 -1094 -115 -78 -267 -137
-419 -164 -118 -21 -195 -18 -907 36 -588 43 -626 43 -737 -3 -52 -22 -133
-74 -197 -128 -21 -17 -38 -27 -38 -22 0 4 -38 224 -85 488 l-85 480 48 44
c74 68 214 157 304 191 166 64 218 74 398 74 160 0 170 -2 336 -42 150 -37
185 -42 286 -42 64 0 155 7 204 15 49 9 217 39 374 66 350 62 417 63 526 9 77
-38 152 -107 184 -170 12 -23 19 -44 17 -46 -3 -3 -235 -45 -517 -95 -282 -49
-521 -94 -531 -100 -64 -34 -46 -147 26 -165 22 -5 1081 172 1167 196 67 19
84 75 53 176 -8 27 -15 50 -15 51 0 2 693 519 723 538 70 45 181 51 265 14z
m-4075 -481 c20 -86 248 -1421 244 -1431 -4 -11 -554 -115 -561 -105 -2 1 -8
35 -15 73 -12 74 -120 694 -197 1129 -25 142 -44 259 -42 261 5 5 512 93 539
94 20 1 28 -5 32 -21z"/>
</g>
</svg>
